<svg width="13" height="12" viewBox="0 0 13 12" fill="none" xmlns="http://www.w3.org/2000/svg">
<path d="M3.27733 3.97655H0.876829V11.0064H3.27733V3.97655Z" fill="white"/>
<path d="M2.87376 0.695865C2.64498 0.557334 2.37611 0.483403 2.10109 0.483398C1.91757 0.483396 1.73587 0.516319 1.56642 0.580277C1.39698 0.644234 1.24314 0.737962 1.11375 0.856072C0.984355 0.974182 0.881967 1.11434 0.81247 1.26849C0.742973 1.42264 0.707739 1.58774 0.708794 1.75429C0.710375 2.0039 0.793373 2.2475 0.947318 2.45434C1.10126 2.66119 1.31926 2.82202 1.5738 2.91655C1.82834 3.01108 2.10803 3.03507 2.37758 2.98549C2.64713 2.93592 2.89446 2.815 3.08838 2.63799C3.28229 2.46098 3.4141 2.23582 3.46718 1.9909C3.52026 1.74598 3.49222 1.49227 3.38661 1.2618C3.281 1.03132 3.10255 0.834397 2.87376 0.695865Z" fill="white"/>
<path d="M7.1306 3.97619H4.81811L4.81011 11.0206H7.21061V7.54196C7.21061 6.62692 7.40265 5.74092 8.65091 5.74092C9.89917 5.74092 9.89918 6.79395 9.89918 7.60732V11.0061H12.2997V7.1498C12.2997 5.25435 11.8116 3.8019 9.41107 3.8019C8.95355 3.78564 8.49976 3.88245 8.09812 4.08198C7.69648 4.28151 7.36208 4.57627 7.1306 4.93481V3.97619Z" fill="white"/>
</svg>
