<svg width="12" height="11" viewBox="0 0 12 11" fill="none" xmlns="http://www.w3.org/2000/svg">
<path d="M11.6521 1.59527C11.2261 1.79043 10.6866 1.97361 10.2032 2.0345C10.6948 1.73302 11.4748 1.10512 11.6521 0.537109C11.1928 0.816123 10.3621 1.1141 9.8202 1.22192C9.38748 0.747742 8.77026 0.537109 8.0864 0.537109C6.77276 0.537109 5.8566 1.6876 5.8566 3.03276V4.03102C3.92478 4.03102 2.04126 2.51017 0.869125 1.03624C0.657184 1.40773 0.545914 1.83134 0.546994 2.2626C0.546994 3.17052 1.35401 4.09191 1.99296 4.53015C1.60322 4.51767 0.865261 4.21021 0.544096 4.03102V4.05947C0.544096 5.24091 1.34628 6.04301 2.43341 6.26662C2.23492 6.32302 1.99296 6.52667 1.06182 6.52667C1.36415 7.49249 2.88401 8.0031 3.92478 8.02406C3.11052 8.67642 1.65876 9.02232 0.544096 9.02232C0.351398 9.02232 0.247079 9.0333 0.061142 9.01084C1.11302 9.69964 2.58216 10.0206 3.92478 10.0206C8.2989 10.0206 10.6861 6.5676 10.6861 3.34721C10.6861 3.2414 10.6828 2.88701 10.6774 2.78319C11.1449 2.44279 11.3343 2.08641 11.6521 1.59527Z" fill="white"/>
</svg>
